<svg xmlns="http://www.w3.org/2000/svg" width="192" height="30.53" viewBox="0 0 192 30.53"><defs><style>.a{fill:#fff700;}.a,.b{stroke:#000;stroke-linecap:round;stroke-linejoin:round;stroke-width:2px;}.b{fill:none;}</style></defs><g transform="translate(-83 -92)"><path class="a" d="M18,3l4.635,9.39L33,13.9l-7.5,7.3,1.77,10.32L18,26.655,8.73,31.53,10.5,21.21,3,13.9,13.365,12.39Z" transform="translate(81 90)"/><path class="b" d="M18,3l4.635,9.39L33,13.9l-7.5,7.3,1.77,10.32L18,26.655,8.73,31.53,10.5,21.21,3,13.9,13.365,12.39Z" transform="translate(121 90)"/><path class="b" d="M18,3l4.635,9.39L33,13.9l-7.5,7.3,1.77,10.32L18,26.655,8.73,31.53,10.5,21.21,3,13.9,13.365,12.39Z" transform="translate(161 90)"/><path class="b" d="M18,3l4.635,9.39L33,13.9l-7.5,7.3,1.77,10.32L18,26.655,8.73,31.53,10.5,21.21,3,13.9,13.365,12.39Z" transform="translate(201 90)"/><path class="b" d="M18,3l4.635,9.39L33,13.9l-7.5,7.3,1.77,10.32L18,26.655,8.73,31.53,10.5,21.21,3,13.9,13.365,12.39Z" transform="translate(241 90)"/></g></svg>